<?xml version="1.0" encoding="UTF-8" standalone="no"?>
<!-- Created with Inkscape (http://www.inkscape.org/) -->

<svg
   version="1.1"
   id="svg229"
   xml:space="preserve"
   width="666.66669"
   height="666.66669"
   viewBox="0 0 666.66669 666.66669"
   sodipodi:docname="lnf192.svg"
   inkscape:version="1.1.1 (3bf5ae0d25, 2021-09-20)"
   xmlns:inkscape="http://www.inkscape.org/namespaces/inkscape"
   xmlns:sodipodi="http://sodipodi.sourceforge.net/DTD/sodipodi-0.dtd"
   xmlns="http://www.w3.org/2000/svg"
   xmlns:svg="http://www.w3.org/2000/svg"><defs
     id="defs233"><clipPath
       clipPathUnits="userSpaceOnUse"
       id="clipPath245"><path
         d="M 0,500 H 500 V 0 H 0 Z"
         id="path243" /></clipPath><clipPath
       clipPathUnits="userSpaceOnUse"
       id="clipPath253"><path
         d="M 0,500 H 500 V 0 H 0 Z"
         id="path251" /></clipPath><clipPath
       clipPathUnits="userSpaceOnUse"
       id="clipPath269"><path
         d="M 0,500 H 500 V 0 H 0 Z"
         id="path267" /></clipPath><clipPath
       clipPathUnits="userSpaceOnUse"
       id="clipPath277"><path
         d="M 0,500 H 500 V 0 H 0 Z"
         id="path275" /></clipPath><clipPath
       clipPathUnits="userSpaceOnUse"
       id="clipPath291"><path
         d="M 0,500 H 500 V 0 H 0 Z"
         id="path289" /></clipPath><radialGradient
       fx="0"
       fy="0"
       cx="0"
       cy="0"
       r="1"
       gradientUnits="userSpaceOnUse"
       gradientTransform="matrix(250,0,0,-250,250,250)"
       spreadMethod="pad"
       id="radialGradient303"><stop
         style="stop-opacity:1;stop-color:#0072c0"
         offset="0"
         id="stop297" /><stop
         style="stop-opacity:1;stop-color:#0072c0"
         offset="0.26665249"
         id="stop299" /><stop
         style="stop-opacity:1;stop-color:#170c66"
         offset="1"
         id="stop301" /></radialGradient><clipPath
       clipPathUnits="userSpaceOnUse"
       id="clipPath307"><path
         d="M 0,500 H 500 V 0 H 0 Z"
         id="path305" /></clipPath><radialGradient
       fx="0"
       fy="0"
       cx="0"
       cy="0"
       r="1"
       gradientUnits="userSpaceOnUse"
       gradientTransform="matrix(250,0,0,-250,250,250)"
       spreadMethod="pad"
       id="radialGradient319"><stop
         style="stop-opacity:1;stop-color:#0072c0"
         offset="0"
         id="stop313" /><stop
         style="stop-opacity:1;stop-color:#0072c0"
         offset="0.26665249"
         id="stop315" /><stop
         style="stop-opacity:1;stop-color:#170c66"
         offset="1"
         id="stop317" /></radialGradient><linearGradient
       x1="0"
       y1="0"
       x2="1"
       y2="0"
       gradientUnits="userSpaceOnUse"
       gradientTransform="matrix(115,0,0,115,123,252.5)"
       spreadMethod="pad"
       id="linearGradient365"><stop
         style="stop-opacity:1;stop-color:#00ead9"
         offset="0"
         id="stop353" /><stop
         style="stop-opacity:1;stop-color:#00ead9"
         offset="0.00638522"
         id="stop355" /><stop
         style="stop-opacity:1;stop-color:#05ccc1"
         offset="0.36269991"
         id="stop357" /><stop
         style="stop-opacity:1;stop-color:#05ccc1"
         offset="0.364934"
         id="stop359" /><stop
         style="stop-opacity:1;stop-color:#016a9a"
         offset="0.97602683"
         id="stop361" /><stop
         style="stop-opacity:1;stop-color:#016a9a"
         offset="1"
         id="stop363" /></linearGradient><linearGradient
       x1="0"
       y1="0"
       x2="1"
       y2="0"
       gradientUnits="userSpaceOnUse"
       gradientTransform="matrix(89.799622,-89.799622,-89.799622,-89.799622,134.26953,293.91309)"
       spreadMethod="pad"
       id="linearGradient393"><stop
         style="stop-opacity:1;stop-color:#00ead9"
         offset="0"
         id="stop381" /><stop
         style="stop-opacity:1;stop-color:#00ead9"
         offset="0.00638522"
         id="stop383" /><stop
         style="stop-opacity:1;stop-color:#05ccc1"
         offset="0.36269991"
         id="stop385" /><stop
         style="stop-opacity:1;stop-color:#05ccc1"
         offset="0.364934"
         id="stop387" /><stop
         style="stop-opacity:1;stop-color:#016a9a"
         offset="0.97602683"
         id="stop389" /><stop
         style="stop-opacity:1;stop-color:#016a9a"
         offset="1"
         id="stop391" /></linearGradient><clipPath
       clipPathUnits="userSpaceOnUse"
       id="clipPath403"><path
         d="M 0,500 H 500 V 0 H 0 Z"
         id="path401" /></clipPath><clipPath
       clipPathUnits="userSpaceOnUse"
       id="clipPath501"><path
         d="M 0,500 H 500 V 0 H 0 Z"
         id="path499" /></clipPath></defs><sodipodi:namedview
     id="namedview231"
     pagecolor="#ffffff"
     bordercolor="#666666"
     borderopacity="1.0"
     inkscape:pageshadow="2"
     inkscape:pageopacity="0.0"
     inkscape:pagecheckerboard="0"
     showgrid="false"
     inkscape:zoom="0.77999998"
     inkscape:cx="282.05129"
     inkscape:cy="192.94872"
     inkscape:window-width="1366"
     inkscape:window-height="705"
     inkscape:window-x="-8"
     inkscape:window-y="-8"
     inkscape:window-maximized="1"
     inkscape:current-layer="g235" /><g
     id="g235"
     inkscape:groupmode="layer"
     inkscape:label="LOGO"
     transform="matrix(1.3333333,0,0,-1.3333333,0,666.66667)"><path
       d="m 123.2496,259.48095 h 45.01961 v 46.28827 H 123.2496 Z"
       style="fill:#ffffff;fill-opacity:1;fill-rule:nonzero;stroke:none;stroke-width:0.091299"
       id="path237" /><g
       id="g766"
       transform="matrix(1.2352282,0,0,1.2875367,-28.081724,-87.044852)"><path
         d="M 237,192 H 124 v 111 h 113 z"
         style="fill:none;stroke:url(#linearGradient365);stroke-width:2;stroke-linecap:butt;stroke-linejoin:miter;stroke-miterlimit:10;stroke-dasharray:none;stroke-opacity:1"
         id="path367" /><g
         id="g369"><g
           id="g371"><g
             id="g377"><g
               id="g379"><path
                 d="m 219.928,293.625 c -1.082,-1.084 -1.278,-2.717 -0.588,-4.001 v 0 l -29.604,-29.605 -0.577,-2.005 1.96,0.623 29.603,29.604 c 1.284,-0.69 2.917,-0.494 4.001,0.589 v 0 c 1.325,1.325 1.325,3.47 0,4.795 v 0 c -0.661,0.662 -1.529,0.993 -2.396,0.993 v 0 c -0.868,0 -1.736,-0.331 -2.399,-0.993 m -85.946,0 c -1.325,-1.325 -1.325,-3.47 0,-4.794 v 0 c 1.084,-1.083 2.716,-1.28 4,-0.591 v 0 l 29.605,-29.605 1.959,-0.621 -0.576,2.005 -29.605,29.605 c 0.69,1.284 0.494,2.917 -0.59,4.001 v 0 c -0.661,0.662 -1.529,0.993 -2.396,0.993 v 0 c -0.868,0 -1.735,-0.331 -2.397,-0.993 m 36.855,-1.499 c -1.323,-1.323 -1.323,-3.47 0,-4.794 v 0 c 0.382,-0.381 0.831,-0.648 1.308,-0.809 v 0 l -0.138,-27.951 2.086,-0.01 0.138,27.928 c 0.512,0.156 0.995,0.437 1.4,0.842 v 0 c 1.324,1.324 1.324,3.471 0,4.794 v 0 c -0.662,0.662 -1.529,0.993 -2.397,0.993 v 0 c -0.867,0 -1.735,-0.331 -2.397,-0.993 m 11.985,-0.184 c -1.324,-1.324 -1.323,-3.47 0,-4.794 v 0 c 0.422,-0.421 0.926,-0.707 1.46,-0.861 v 0 l -0.166,-29.54 0.061,-11.093 2.086,0.012 -0.061,11.08 0.167,29.613 c 0.455,0.164 0.883,0.424 1.249,0.789 v 0 c 1.323,1.324 1.323,3.47 -0.001,4.794 v 0 c -0.662,0.662 -1.53,0.993 -2.397,0.993 v 0 c -0.868,0 -1.736,-0.331 -2.398,-0.993 m 20.799,-3.012 c -0.666,-0.666 -0.813,-1.65 -0.45,-2.461 v 0 L 188.023,271.32 v -2.212 l 16.254,16.255 c 0.812,-0.364 1.795,-0.216 2.462,0.449 v 0 c 0.86,0.861 0.86,2.256 0,3.118 v 0 c -0.431,0.43 -0.995,0.645 -1.559,0.645 v 0 c -0.564,0 -1.128,-0.215 -1.559,-0.645 m -51.653,0 c -0.861,-0.861 -0.861,-2.257 0,-3.118 v 0 c 0.664,-0.665 1.649,-0.814 2.46,-0.449 v 0 l 16.255,-16.255 v 2.213 l -15.149,15.148 c 0.364,0.81 0.215,1.796 -0.45,2.461 v 0 c -0.43,0.43 -0.995,0.645 -1.559,0.645 v 0 c -0.564,0 -1.128,-0.215 -1.557,-0.645 m 69.547,-7.927 c -0.869,-0.869 -1.025,-2.18 -0.471,-3.21 v 0 l -20.3,-20.299 2.765,0.552 18.642,18.64 c 1.027,-0.553 2.341,-0.398 3.21,0.472 v 0 c 1.062,1.062 1.06,2.782 -0.002,3.845 v 0 c -0.53,0.531 -1.226,0.796 -1.922,0.796 v 0 c -0.696,0 -1.391,-0.265 -1.922,-0.796 m -88.169,0 c -1.062,-1.063 -1.062,-2.783 0,-3.844 v 0 c 0.869,-0.871 2.18,-1.026 3.21,-0.473 v 0 l 18.64,-18.64 2.767,-0.552 -20.301,20.299 c 0.554,1.03 0.398,2.341 -0.471,3.21 v 0 c -0.531,0.531 -1.227,0.796 -1.923,0.796 v 0 c -0.696,0 -1.392,-0.265 -1.922,-0.796 m 4.937,-22.707 c -1.785,-0.565 -2.775,-2.47 -2.21,-4.256 v 0 c 0.566,-1.784 2.471,-2.774 4.256,-2.208 v 0 c 1.084,0.343 1.873,1.182 2.2,2.189 v 0 h 38.818 v 2.086 H 142.53 c -0.463,1.433 -1.791,2.347 -3.223,2.347 v 0 c -0.339,0 -0.684,-0.051 -1.024,-0.158 m 79.021,-0.835 c -0.393,-0.392 -0.667,-0.86 -0.826,-1.355 v 0 h -28.122 l -0.002,-2.086 28.124,10e-4 c 0.159,-0.496 0.433,-0.961 0.826,-1.354 v 0 c 1.324,-1.325 3.471,-1.325 4.794,-0.001 v 0 c 1.324,1.324 1.324,3.47 0,4.795 v 0 c -0.662,0.662 -1.529,0.993 -2.397,0.993 v 0 c -0.868,0 -1.735,-0.331 -2.397,-0.993 m -45.297,-5.901 v -40.662 c -0.495,-0.159 -0.962,-0.433 -1.354,-0.825 v 0 c -1.324,-1.325 -1.324,-3.472 0,-4.796 v 0 c 1.324,-1.324 3.47,-1.324 4.794,0 v 0 c 1.324,1.326 1.324,3.471 0,4.793 v 0 c -0.393,0.395 -0.86,0.669 -1.355,0.829 v 0 l 10e-4,40.662 z m 46.403,-6.269 c -0.442,-0.441 -0.732,-0.975 -0.879,-1.54 v 0 h -41.53 L 176,241.666 h 41.65 c 0.164,-0.426 0.415,-0.825 0.761,-1.169 v 0 c 1.323,-1.325 3.47,-1.325 4.794,-0.001 v 0 c 1.323,1.324 1.323,3.471 0,4.795 v 0 c -0.662,0.662 -1.53,0.993 -2.398,0.993 v 0 c -0.867,0 -1.735,-0.331 -2.397,-0.993 m -80.502,0.8 c -1.785,-0.566 -2.773,-2.47 -2.209,-4.255 v 0 c 0.565,-1.785 2.471,-2.774 4.255,-2.209 v 0 c 1.098,0.347 1.893,1.202 2.212,2.225 v 0 h 28.119 v 2.086 h -28.142 c -0.474,1.411 -1.792,2.311 -3.212,2.311 v 0 c -0.339,0 -0.683,-0.051 -1.023,-0.158 m 61.356,-5.563 16.254,-16.258 c -0.363,-0.809 -0.215,-1.794 0.451,-2.46 v 0 c 0.861,-0.859 2.258,-0.859 3.116,0 v 0 c 0.862,0.862 0.862,2.257 0,3.118 v 0 c -0.665,0.665 -1.649,0.814 -2.459,0.45 v 0 l -15.149,15.15 z m -42.404,-0.37 -15.148,-15.148 c -0.811,0.363 -1.795,0.215 -2.461,-0.451 v 0 c -0.861,-0.86 -0.861,-2.255 0,-3.116 v 0 c 0.861,-0.862 2.256,-0.862 3.116,0 v 0 c 0.666,0.664 0.815,1.651 0.451,2.459 v 0 l 16.255,16.256 z m 31.932,-2.728 29.605,-29.604 c -0.69,-1.284 -0.493,-2.918 0.588,-3.999 v 0 c 1.326,-1.325 3.472,-1.325 4.796,-0.003 v 0 c 1.324,1.325 1.324,3.472 0,4.796 v 0 c -1.083,1.082 -2.718,1.28 -4.001,0.589 v 0 l -29.605,29.605 -2.005,0.577 z m -4.615,1.961 v -28.123 c -0.495,-0.161 -0.961,-0.435 -1.355,-0.828 v 0 c -1.323,-1.323 -1.323,-3.472 0,-4.795 v 0 c 1.324,-1.322 3.471,-1.322 4.795,0 v 0 c 1.324,1.325 1.324,3.472 -10e-4,4.795 v 0 c -0.392,0.393 -0.858,0.667 -1.352,0.826 v 0 l -0.001,28.125 z m -16.016,-0.946 -29.605,-29.605 c -1.283,0.691 -2.917,0.494 -4,-0.588 v 0 c -1.325,-1.324 -1.324,-3.471 0,-4.795 v 0 c 1.324,-1.324 3.47,-1.324 4.795,0 v 0 c 1.083,1.082 1.279,2.717 0.588,4 v 0 l 29.605,29.606 0.623,1.958 z m 20.041,-13.404 18.64,-18.641 c -0.553,-1.031 -0.396,-2.341 0.472,-3.211 v 0 c 1.062,-1.061 2.784,-1.061 3.845,-0.001 v 0 c 1.063,1.062 1.063,2.785 0,3.847 v 0 c -0.869,0.869 -2.18,1.025 -3.21,0.471 v 0 l -20.3,20.3 z m -37.814,-17.904 c -1.029,0.554 -2.342,0.398 -3.211,-0.471 v 0 c -1.061,-1.063 -1.061,-2.784 0,-3.846 v 0 c 1.062,-1.063 2.785,-1.063 3.846,0 v 0 c 0.869,0.872 1.026,2.18 0.47,3.212 v 0 l 18.641,18.639 0.554,2.764 z"
                 style="fill:url(#linearGradient393);stroke:none"
                 id="path395" /></g></g></g></g></g><g
       id="g397"><g
         id="g399"
         clip-path="url(#clipPath403)"><g
           id="g405"
           transform="translate(258.043,217.4961)"><path
             d="M 0,0 H -2.848 L -4.232,-7.996 H -6.163 L -4.779,0 h -2.815 l 0.283,1.602 h 7.594 z"
             style="fill:#ffffff;fill-opacity:1;fill-rule:nonzero;stroke:none"
             id="path407" /></g><g
           id="g409"
           transform="translate(260.3193,215.8418)"><path
             d="M 0,0 C 0.558,0.623 1.202,0.932 1.931,0.922 2.639,0.904 3.158,0.652 3.49,0.162 3.821,-0.328 3.946,-0.998 3.862,-1.846 L 3.111,-6.342 H 1.252 l 0.759,4.522 c 0.021,0.172 0.025,0.33 0.012,0.474 -0.044,0.475 -0.321,0.719 -0.831,0.733 -0.5,0.017 -0.939,-0.198 -1.318,-0.647 l -0.896,-5.082 h -1.859 l 1.753,10.125 h 1.866 z"
             style="fill:#ffffff;fill-opacity:1;fill-rule:nonzero;stroke:none"
             id="path411" /></g><g
           id="g413"
           transform="translate(268.6592,215.2285)"><path
             d="M 0,0 C -0.343,0.01 -0.647,-0.1 -0.913,-0.322 -1.179,-0.547 -1.417,-0.936 -1.628,-1.49 H 0.93 l 0.04,0.172 c 0.025,0.175 0.027,0.343 0.006,0.502 C 0.932,-0.562 0.824,-0.363 0.653,-0.221 0.481,-0.078 0.264,-0.004 0,0 m -0.593,-5.859 c -0.625,0.004 -1.177,0.156 -1.658,0.457 -0.48,0.3 -0.84,0.715 -1.078,1.24 -0.236,0.525 -0.329,1.103 -0.276,1.736 l 0.019,0.264 c 0.066,0.695 0.269,1.332 0.607,1.912 0.337,0.58 0.773,1.027 1.305,1.342 0.531,0.314 1.12,0.461 1.767,0.443 C 1.011,1.518 1.706,1.182 2.179,0.523 2.651,-0.135 2.83,-0.969 2.716,-1.977 L 2.61,-2.789 h -4.37 c -0.017,-0.461 0.095,-0.83 0.336,-1.107 0.241,-0.276 0.571,-0.418 0.989,-0.428 0.676,-0.018 1.27,0.246 1.78,0.791 l 0.85,-1.055 C 1.927,-4.992 1.54,-5.307 1.035,-5.533 0.53,-5.76 -0.013,-5.869 -0.593,-5.859"
             style="fill:#ffffff;fill-opacity:1;fill-rule:nonzero;stroke:none"
             id="path415" /></g><g
           id="g417"
           transform="translate(281.1611,213.4219)"><path
             d="m 0,0 h -3.679 l -0.685,-3.922 h -1.931 l 1.667,9.598 H 1.45 L 1.167,4.074 h -4.14 L -3.408,1.596 h 3.691 z"
             style="fill:#ffffff;fill-opacity:1;fill-rule:nonzero;stroke:none"
             id="path419" /></g><g
           id="g421"
           transform="translate(286.0547,210.2383)"><path
             d="m 0,0 c -0.527,-0.594 -1.184,-0.883 -1.965,-0.869 -0.685,0.008 -1.205,0.254 -1.556,0.738 -0.352,0.483 -0.487,1.119 -0.409,1.91 l 0.772,4.616 h 1.859 L -2.084,1.756 c -0.018,-0.147 -0.02,-0.283 -0.006,-0.41 0.043,-0.44 0.287,-0.666 0.731,-0.68 0.576,-0.018 1.052,0.205 1.431,0.666 l 0.889,5.063 h 1.873 l -1.24,-7.133 h -1.733 z"
             style="fill:#ffffff;fill-opacity:1;fill-rule:nonzero;stroke:none"
             id="path423" /></g><g
           id="g425"
           transform="translate(292.6016,218.3867)"><path
             d="M 0,0 -0.31,-1.754 H 0.877 L 0.633,-3.152 H -0.554 L -1.16,-6.725 c -0.027,-0.224 -0.009,-0.394 0.053,-0.513 0.061,-0.119 0.211,-0.182 0.448,-0.192 0.07,-0.004 0.259,0.006 0.567,0.034 l -0.132,-1.458 c -0.33,-0.109 -0.685,-0.16 -1.068,-0.152 -0.61,0.01 -1.065,0.201 -1.364,0.574 -0.299,0.373 -0.422,0.879 -0.369,1.516 l 0.613,3.764 h -1.009 l 0.244,1.398 h 1.009 L -1.865,0 Z"
             style="fill:#ffffff;fill-opacity:1;fill-rule:nonzero;stroke:none"
             id="path427" /></g><g
           id="g429"
           transform="translate(297.5342,210.2383)"><path
             d="m 0,0 c -0.527,-0.594 -1.183,-0.883 -1.965,-0.869 -0.685,0.008 -1.204,0.254 -1.556,0.738 -0.351,0.483 -0.487,1.119 -0.408,1.91 l 0.772,4.616 h 1.858 L -2.083,1.756 c -0.018,-0.147 -0.02,-0.283 -0.007,-0.41 0.044,-0.44 0.288,-0.666 0.732,-0.68 0.576,-0.018 1.052,0.205 1.43,0.666 l 0.89,5.063 H 2.834 L 1.595,-0.738 h -1.734 z"
             style="fill:#ffffff;fill-opacity:1;fill-rule:nonzero;stroke:none"
             id="path431" /></g><g
           id="g433"
           transform="translate(305.1953,214.8457)"><path
             d="m 0,0 c -0.254,0.045 -0.463,0.066 -0.625,0.066 -0.664,0.018 -1.189,-0.23 -1.576,-0.744 l -0.824,-4.668 h -1.86 l 1.24,7.133 1.747,0.006 -0.171,-0.869 c 0.448,0.672 1.002,1.008 1.661,1.008 0.184,0 0.4,-0.032 0.646,-0.092 z"
             style="fill:#ffffff;fill-opacity:1;fill-rule:nonzero;stroke:none"
             id="path435" /></g><g
           id="g437"
           transform="translate(308.8096,215.2285)"><path
             d="M 0,0 C -0.343,0.01 -0.647,-0.1 -0.913,-0.322 -1.179,-0.547 -1.417,-0.936 -1.628,-1.49 H 0.93 l 0.04,0.172 c 0.025,0.175 0.027,0.343 0.006,0.502 C 0.932,-0.562 0.824,-0.363 0.653,-0.221 0.481,-0.078 0.264,-0.004 0,0 m -0.593,-5.859 c -0.625,0.004 -1.177,0.156 -1.658,0.457 -0.48,0.3 -0.84,0.715 -1.078,1.24 -0.236,0.525 -0.329,1.103 -0.276,1.736 l 0.019,0.264 c 0.066,0.695 0.269,1.332 0.607,1.912 0.337,0.58 0.773,1.027 1.305,1.342 0.531,0.314 1.12,0.461 1.767,0.443 C 1.011,1.518 1.706,1.182 2.179,0.523 2.651,-0.135 2.83,-0.969 2.716,-1.977 L 2.61,-2.789 h -4.37 c -0.017,-0.461 0.095,-0.83 0.336,-1.107 0.241,-0.276 0.571,-0.418 0.989,-0.428 0.676,-0.018 1.27,0.246 1.78,0.791 l 0.85,-1.055 C 1.927,-4.992 1.54,-5.307 1.035,-5.533 0.53,-5.76 -0.013,-5.869 -0.593,-5.859"
             style="fill:#ffffff;fill-opacity:1;fill-rule:nonzero;stroke:none"
             id="path439" /></g><g
           id="g441"
           transform="translate(317.0996,212.2793)"><path
             d="M 0,0 C 0.008,-0.42 0.107,-0.752 0.297,-0.996 0.485,-1.24 0.751,-1.365 1.094,-1.375 1.665,-1.393 2.113,-1.131 2.438,-0.588 2.764,-0.047 2.916,0.666 2.894,1.547 2.876,1.969 2.773,2.305 2.587,2.559 2.4,2.811 2.133,2.941 1.786,2.949 1.232,2.967 0.789,2.707 0.458,2.17 0.126,1.633 -0.026,0.908 0,0 M 1.879,4.484 C 2.507,4.477 3.049,4.314 3.504,4 3.958,3.688 4.292,3.254 4.506,2.703 4.719,2.15 4.794,1.539 4.732,0.867 4.631,-0.268 4.237,-1.186 3.549,-1.885 2.861,-2.586 2.012,-2.928 1.002,-2.91 c -0.62,0.008 -1.156,0.168 -1.608,0.476 -0.454,0.311 -0.788,0.741 -1.002,1.289 -0.216,0.549 -0.292,1.157 -0.232,1.821 0.115,1.178 0.515,2.113 1.2,2.806 0.686,0.696 1.525,1.03 2.519,1.002"
             style="fill:#ffffff;fill-opacity:1;fill-rule:nonzero;stroke:none"
             id="path443" /></g><g
           id="g445"
           transform="translate(322.6641,209.5)"><path
             d="M 0,0 0.996,5.742 H -0.032 L 0.211,7.133 1.24,7.139 1.332,7.852 c 0.114,0.759 0.424,1.357 0.93,1.789 0.506,0.433 1.148,0.644 1.931,0.636 0.268,-0.009 0.604,-0.054 1.008,-0.138 L 5.037,8.662 C 4.826,8.715 4.644,8.74 4.49,8.74 4.16,8.746 3.878,8.662 3.643,8.49 3.408,8.318 3.262,8.059 3.205,7.715 L 3.105,7.133 H 4.482 L 4.239,5.742 H 2.868 L 1.873,0 Z"
             style="fill:#ffffff;fill-opacity:1;fill-rule:nonzero;stroke:none"
             id="path447" /></g><g
           id="g449"
           transform="translate(337.5527,209.5)"><path
             d="M 0,0 H -1.872 L -4.542,6.4 -5.656,0 h -1.931 l 1.667,9.598 h 1.866 l 2.676,-6.414 1.114,6.414 h 1.925 z"
             style="fill:#ffffff;fill-opacity:1;fill-rule:nonzero;stroke:none"
             id="path451" /></g><g
           id="g453"
           transform="translate(345.373,213.4219)"><path
             d="m 0,0 h -3.679 l -0.685,-3.922 h -1.931 l 1.667,9.598 H 1.449 L 1.166,4.074 H -2.973 L -3.408,1.596 h 3.691 z"
             style="fill:#ffffff;fill-opacity:1;fill-rule:nonzero;stroke:none"
             id="path455" /></g><g
           id="g457"
           transform="translate(354.6484,217.4961)"><path
             d="M 0,0 H -2.848 L -4.231,-7.996 H -6.162 L -4.779,0 h -2.815 l 0.283,1.602 h 7.594 z"
             style="fill:#ffffff;fill-opacity:1;fill-rule:nonzero;stroke:none"
             id="path459" /></g><g
           id="g461"
           transform="translate(357.7227,211.5117)"><path
             d="m 0,0 c 0.07,0.352 -0.174,0.605 -0.732,0.764 l -0.6,0.152 c -1.419,0.391 -2.109,1.08 -2.069,2.068 0.022,0.674 0.319,1.221 0.893,1.647 0.573,0.424 1.264,0.631 2.072,0.621 C 0.369,5.244 1.02,5.031 1.516,4.613 2.013,4.195 2.266,3.641 2.273,2.945 L 0.428,2.953 C 0.437,3.563 0.134,3.873 -0.48,3.881 -0.771,3.881 -1.023,3.809 -1.236,3.664 -1.449,3.52 -1.58,3.324 -1.629,3.078 -1.693,2.727 -1.428,2.479 -0.83,2.332 L -0.566,2.273 C 0.039,2.129 0.503,1.963 0.824,1.775 1.145,1.59 1.393,1.357 1.565,1.08 1.739,0.803 1.819,0.471 1.807,0.084 1.793,-0.367 1.646,-0.764 1.367,-1.102 1.089,-1.439 0.707,-1.701 0.221,-1.887 -0.265,-2.07 -0.775,-2.156 -1.312,-2.143 c -0.792,0.008 -1.45,0.237 -1.977,0.682 -0.527,0.445 -0.796,1.024 -0.805,1.731 L -2.34,0.256 c 0.018,-0.682 0.383,-1.026 1.094,-1.035 0.344,0 0.625,0.07 0.848,0.211 0.221,0.14 0.354,0.33 0.398,0.568"
             style="fill:#ffffff;fill-opacity:1;fill-rule:nonzero;stroke:none"
             id="path463" /></g></g></g><g
       id="g465"
       transform="translate(252.5498,252.999)"><path
         d="M 0,0 V 35.5 H 9.75 V 8.5 H 25.851 V 0 Z"
         style="fill:#ffffff;fill-opacity:1;fill-rule:nonzero;stroke:none"
         id="path467" /></g><path
       d="m 281.799,288.499 h 9.75 v -35.5 h -9.75 z"
       style="fill:#ffffff;fill-opacity:1;fill-rule:nonzero;stroke:none"
       id="path469" /><g
       id="g471"
       transform="translate(304.498,288.499)"><path
         d="M 0,0 6.951,-24.25 13.801,0 h 10.25 l -12.25,-35.5 h -9.7 L -10.299,0 Z"
         style="fill:#ffffff;fill-opacity:1;fill-rule:nonzero;stroke:none"
         id="path473" /></g><g
       id="g475"
       transform="translate(356.5488,261.499)"><path
         d="M 0,0 V -8.5 H -25.301 V 27 h 24.85 v -8.5 h -15.1 v -5 H -2.65 V 5.6 H -15.551 V 0 Z"
         style="fill:#ffffff;fill-opacity:1;fill-rule:nonzero;stroke:none"
         id="path477" /></g><path
       d="m 254.6201,235.9795 v -6.98 h -3.9 v 14.2 h 3.04 l 5.7,-7.22 v 7.22 h 3.899 v -14.2 h -3.099 z"
       style="fill:#ffffff;fill-opacity:1;fill-rule:nonzero;stroke:none"
       id="path481" /><g
       id="g483"
       transform="translate(265.8008,228.999)"><path
         d="M 0,0 V 14.2 H 9.739 V 10.8 H 3.899 V 8.44 h 4.76 V 5.28 h -4.76 l 0,-5.28 z"
         style="fill:#ffffff;fill-opacity:1;fill-rule:nonzero;stroke:none"
         id="path485" /></g><g
       id="g487"
       transform="translate(288.1191,239.7988)"><path
         d="m 0,0 h -4.079 v -10.8 h -3.9 V 0 h -4.1 V 3.4 H 0 Z"
         style="fill:#ffffff;fill-opacity:1;fill-rule:nonzero;stroke:none"
         id="path489" /></g><g
       id="g491"
       transform="translate(303.9795,239.7988)"><path
         d="m 0,0 h -4.079 v -10.8 h -3.9 V 0 h -4.1 V 3.4 H 0 Z"
         style="fill:#ffffff;fill-opacity:1;fill-rule:nonzero;stroke:none"
         id="path493" /></g><g
       id="g495"><g
         id="g497"
         clip-path="url(#clipPath501)"><g
           id="g503"
           transform="translate(308.3594,236.0986)"><path
             d="m 0,0 c 0,-0.479 0.067,-0.943 0.201,-1.39 0.133,-0.447 0.332,-0.846 0.6,-1.2 0.266,-0.353 0.603,-0.633 1.01,-0.84 0.406,-0.207 0.89,-0.309 1.45,-0.309 0.559,0 1.046,0.106 1.46,0.319 0.413,0.214 0.75,0.504 1.009,0.87 0.26,0.367 0.454,0.774 0.581,1.22 C 6.437,-0.883 6.5,-0.427 6.5,0.04 6.5,0.521 6.434,0.98 6.301,1.42 6.167,1.86 5.967,2.257 5.701,2.61 5.434,2.964 5.094,3.24 4.681,3.44 4.268,3.641 3.787,3.74 3.24,3.74 2.681,3.74 2.197,3.634 1.791,3.42 1.384,3.207 1.047,2.924 0.781,2.57 0.514,2.217 0.317,1.817 0.19,1.37 0.063,0.924 0,0.467 0,0 m 3.221,-7.199 c -1.08,0 -2.061,0.203 -2.94,0.609 -0.881,0.407 -1.637,0.953 -2.27,1.641 -0.634,0.686 -1.12,1.46 -1.46,2.319 -0.34,0.86 -0.51,1.75 -0.51,2.67 0,0.947 0.18,1.847 0.539,2.7 0.36,0.854 0.863,1.617 1.511,2.29 0.646,0.673 1.413,1.203 2.3,1.59 C 1.277,7.007 2.247,7.2 3.301,7.2 4.381,7.2 5.36,6.997 6.24,6.591 7.121,6.184 7.873,5.634 8.5,4.94 9.127,4.247 9.61,3.471 9.951,2.61 c 0.34,-0.86 0.51,-1.743 0.51,-2.65 0,-0.933 -0.178,-1.826 -0.53,-2.68 -0.354,-0.853 -0.854,-1.617 -1.5,-2.29 -0.648,-0.673 -1.41,-1.207 -2.29,-1.599 -0.88,-0.394 -1.854,-0.59 -2.92,-0.59"
             style="fill:#ffffff;fill-opacity:1;fill-rule:nonzero;stroke:none"
             id="path505" /></g><g
           id="g507"
           transform="translate(320.4805,228.999)"><path
             d="M 0,0 V 14.2 H 3.899 V 8.8 l 4.32,5.4 h 4.4 L 7.459,7.84 12.979,0 H 8.5 L 4.979,5.22 3.899,4.1 V 0 Z"
             style="fill:#ffffff;fill-opacity:1;fill-rule:nonzero;stroke:none"
             id="path509" /></g><g
           id="g511"
           transform="translate(344.3994,232.3994)"><path
             d="m 0,0 v -3.4 h -10.12 v 14.2 h 9.94 V 7.399 h -6.04 v -2 h 5.16 V 2.239 H -6.22 V 0 Z"
             style="fill:#ffffff;fill-opacity:1;fill-rule:nonzero;stroke:none"
             id="path513" /></g><g
           id="g515"
           transform="translate(350.1191,235.9795)"><path
             d="m 0,0 v -6.98 h -3.9 v 14.2 h 3.04 L 4.84,0 v 7.22 h 3.9 v -14.2 h -3.1 z"
             style="fill:#ffffff;fill-opacity:1;fill-rule:nonzero;stroke:none"
             id="path517" /></g></g></g></g></svg>
